<?xml version="1.0" encoding="utf-8"?>
<!-- Generator: Adobe Illustrator 23.0.1, SVG Export Plug-In . SVG Version: 6.00 Build 0)  -->
<svg version="1.1" id="Layer_1" xmlns="http://www.w3.org/2000/svg" xmlns:xlink="http://www.w3.org/1999/xlink" x="0px" y="0px"
	 viewBox="0 0 1000 1000" enable-background="new 0 0 1000 1000" xml:space="preserve">
<g>
	<g id="g3960_3_" transform="matrix(1.25,0,0,-1.25,43.30955,1022.2556)">
		<path id="path3962_3_" fill-rule="evenodd" clip-rule="evenodd" fill="#E7E514" d="M390.2,363.2l-41,95.1c0,0.1-0.1,0.1-0.1,0.2
			v0.2l-0.3,0.6c-2.4,5.4-5.2,9.1-8.5,11.1c-0.3,0.2-0.8,0.6-1.7,0.9c-0.8,0.4-1.4,0.7-1.7,1c-1.7,0.5-2.8,0.9-3.4,1.5
			c-0.6,0.5-0.8,1.3-0.8,2.2c0,1,0.6,1.9,1.4,2.5c1,0.6,2.3,1,3.8,1c0.6,0,1.4-0.1,2.7-0.3c0.4,0,0.8-0.1,1-0.1l0.3-0.1
			c4.8-0.5,9-0.8,12.7-0.8c2.5,0,5.1,0.1,7.8,0.2c2.7,0.1,5.8,0.3,9.2,0.5c1,0.1,2.4,0.2,4.7,0.3c2.1,0.2,3.7,0.3,4.7,0.3
			c1.6,0,2.7-0.3,3.3-0.7c0.6-0.5,0.8-1.3,0.8-2.5c0-1-0.1-1.8-0.7-2.3c-0.3-0.5-1.3-1.1-2.8-1.7c-0.3-0.2-0.4-0.2-0.6-0.3
			c0,0-0.1-0.1-0.3-0.1c-3.7-1.7-5.7-4-5.7-6.9c0-0.9,0.3-2.2,0.7-3.9c0.6-1.6,1.3-3.5,2.1-5.7l24.9-59.1c0.1-0.6,0.6-1.2,0.8-1.6
			c0.4-0.4,1-0.6,1.4-0.6s1,0.2,1.4,0.6c0.4,0.3,0.8,0.9,1.1,1.5L430,450c0.8,2,1.4,4,2,6c0.4,2,0.7,3.7,0.7,5.1
			c0,2.8-0.7,5.1-2.1,6.7c-1.6,1.7-3.8,2.9-6.9,3.8c-0.4,0.2-1.1,0.4-1.8,0.6c-0.3,0.1-0.4,0.1-0.4,0.2h-0.1
			c-3.7,0.9-5.5,2.3-5.5,4.4c0,1,0.4,1.7,1.1,2.3c0.7,0.5,1.7,0.8,3.1,0.8c0.3,0,0.6,0,1.1-0.1c0.6,0,1.1-0.1,1.6-0.1
			c0.3-0.1,0.6-0.1,1-0.2c5.5-0.6,10.6-0.9,15.3-0.9c2,0,4.1,0,6.1,0.2c2,0.2,4.1,0.4,6.5,0.7c0.3,0,0.7,0.1,1.1,0.1
			s0.8,0.1,0.8,0.1c1.4-0.1,2.3-0.3,2.7-0.7c0.4-0.4,0.7-1.1,0.7-2.2c0-1.7-1.3-3.3-3.8-4.8l-0.1-0.1c0-0.1-0.1-0.2-0.4-0.4
			c-1-0.6-1.7-1.1-2.3-1.5c-2.1-1.9-4.8-6.3-7.9-13.2c-0.3-0.7-0.6-1.3-0.7-1.7c-0.1-0.2-0.1-0.4-0.3-0.8c-0.1-0.2-0.3-0.6-0.6-1.2
			l-35.6-79.9c-0.1-0.3-0.3-0.6-0.4-1.1c-0.3-0.4-0.6-1-0.8-1.8c-2.4-5.5-4.2-9-5.4-10.4c-1.1-1.4-2.4-2.1-3.7-2.1
			c-1,0-1.7,0.4-2.4,1.1S391,361,390.2,363.2 M526,480.3v-9.3c-2.5,1-5.4,1.6-8.6,1.6c-4.8,0-8.1-1-9.9-3c-1.7-2-2.5-6.5-2.5-13.4
			v-16.7c0-4.2,1-7,3.1-8.7c2-1.7,5.7-2.5,10.6-2.5c2.7,0,5.1,0.2,7.3,0.6v-9.1c-3.1,0.6-6.4,0.8-10,0.8c-5.2,0-8.3-0.5-9.5-1.4
			c-1-0.9-1.6-3.4-1.6-7.6v-28.7c0-6,1-9.9,3.3-11.6c2.1-1.7,6.4-2.6,12.4-2.6c1.8,0,3.7,0.1,5.4,0.3v-8.3c-2.4-0.1-4.8-0.2-7.2-0.2
			c-4.1,0-9.3,0.1-15.7,0.3c-1.6,0.1-2.7,0.2-3.3,0.2c-0.4,0-1,0-1.6,0.1c-3,0.2-4.8,0.3-5.8,0.3c-3.1,0-6.2-0.1-9-0.3
			c-3-0.2-5.9-0.4-9-0.8c-0.4-0.1-0.8-0.1-1.6-0.2c-1.4-0.1-2.4-0.2-3-0.2c-1,0-1.8,0.4-2.5,1.1c-0.7,0.7-1,1.6-1,2.5
			c0,0.9,0.3,1.8,0.8,2.4c0.6,0.7,1.8,1.5,3.7,2.3l0.3,0.2c2.7,1.3,4.4,2.6,5.4,3.9c1.1,1.4,1.8,3.3,2.3,5.6
			c0.6,2.3,0.8,6.3,0.8,12.3v62.3c0,5.1-0.4,8.9-1.1,11.4c-0.7,2.5-2,4.4-3.5,5.9c-1.7,1.3-4.1,2.3-7.3,3c0,0-0.1,0-0.3,0.1
			l-2.5,0.5c-0.6,0.1-1,0.6-1.6,1.2c-0.3,0.7-0.6,1.3-0.6,2c0,0.9,0.4,1.7,1,2.3c0.7,0.7,1.6,1.1,2.4,1.1c0.4,0,0.8,0,1.1,0
			c0.3,0,0.7-0.1,1-0.1c3.7-0.4,7.3-0.7,11-0.8c3.5-0.2,7.3-0.3,11.2-0.3c2.3,0,4.5,0,7.1,0.2c2.4,0.2,5.2,0.4,8.3,0.7
			c0.8,0,2.3,0.1,4,0.3c6.1,0.4,10.6,0.6,13.7,0.6C524.3,480.3,525.1,480.3,526,480.3 M218.5,390.1v62.3c0,5.1-0.4,8.9-1.1,11.4
			c-0.7,2.4-1.8,4.4-3.5,5.9c-0.8,0.7-1.8,1.3-2.8,1.7c-1.1,0.5-2.7,0.9-4.8,1.3c-0.1,0.1-0.4,0.1-0.8,0.2c-0.1,0.1-0.7,0.2-1.6,0.4
			c-0.6,0.1-1,0.6-1.6,1.2c-0.4,0.7-0.7,1.3-0.7,2c0,1.1,0.4,2,1.3,2.6c0.8,0.6,2,0.9,3.4,0.9h1.3c0.3-0.1,0.7-0.1,1.1-0.2
			c0.1,0,0.3-0.1,0.4-0.1c6.6-0.6,13-1,19.2-1c6.5,0,13.1,0.4,20.1,1.1c0.7,0.1,1.1,0.1,1.4,0.2c0.4,0.1,0.7,0.1,1.1,0.1
			c0.3,0.1,0.6,0.1,1,0.1c1.3,0,2.4-0.3,3.1-1c0.8-0.6,1.1-1.4,1.1-2.4c0-1.5-1.3-2.8-3.8-3.9c-0.3-0.1-0.4-0.2-0.4-0.2
			c-1.1-0.3-2-0.6-2.7-0.9c-0.7-0.4-1.3-0.7-1.7-1.2c-1.3-1.2-2.3-2.7-2.7-4.4c-0.6-1.7-0.8-4.9-0.8-9.8v-29c0-0.8,0.1-1.6,0.4-2.1
			c0.4-0.6,0.7-0.9,1.1-0.9c0.1,0,0.6,0.2,1.1,0.5c0.6,0.3,1.1,0.7,1.7,1.3l30.4,27.9c3.4,3.1,5.9,5.7,7.3,7.8
			c1.4,2.1,2.1,4,2.1,5.7c0,2.5-1.7,4.2-5.2,4.9l-0.1,0.1h-0.4h-0.4c0,0-0.1,0-0.3,0.1c-2.7,0.7-4,1.9-4,3.6c0,1.2,0.3,2,0.8,2.4
			c0.6,0.5,1.6,0.7,3.1,0.8c0.7,0,1.3,0,1.8,0c0.6,0,1.1-0.1,1.7-0.2c0.3,0,0.8-0.1,1.4-0.1c5.5-0.3,10.2-0.5,14.3-0.5
			c4.7,0,9.6,0.2,14.7,0.5l0.4,0.1c0.3,0.1,0.7,0.1,1,0.2s0.6,0,1,0c1.7,0,3.1-0.2,3.7-0.7c0.6-0.4,1-1.2,1-2.4c0-1.2-0.3-2-0.7-2.5
			c-0.3-0.5-1.4-1-3.3-1.5c-0.1-0.1-0.4-0.2-0.8-0.3c-1.4-0.6-2.5-1.1-3.3-1.5c-5.7-2.5-12.9-7.7-21.5-15.4l-0.6-0.4l-0.4-0.6
			l-16-14.2c-1.1-0.9-1.8-1.6-2.3-2.1c-0.3-0.6-0.6-1.1-0.6-1.6c0-0.3,0.1-0.8,0.4-1.3c0.3-0.6,0.7-1.4,1.4-2.6l37.4-54.6
			c1.7-2.3,3.3-4.3,4.7-5.6c1.6-1.4,3.1-2.4,4.8-3.2c0.6-0.3,1.1-0.5,2.1-0.7l0.1-0.1c1.3-0.3,2-0.6,2.3-1.1
			c0.3-0.5,0.4-1.4,0.4-2.7c0-1.5-0.3-2.6-1-3.1c-0.7-0.5-2.1-0.8-4.1-0.8c-1,0-1.7,0-2.3,0c-0.6,0.1-1,0.1-1.4,0.1
			c-1.6,0.1-3,0.2-4.2,0.3s-2.5,0.1-3.8,0.1c-3.4,0-7.1-0.1-11-0.5h-0.3c-0.4-0.1-0.7-0.1-1-0.1c-0.3,0-0.6,0-0.8,0
			c-1.7,0-3.4,0.9-5.2,2.5c-1.8,1.7-4.1,4.7-6.9,9.1l-28.5,43.4c-0.6,0.9-1.1,1.5-1.6,1.9c-0.4,0.3-1,0.5-1.3,0.5
			c-0.4,0-0.8-0.1-1.1-0.2c-0.3-0.1-0.6-0.3-0.8-0.6l-5.2-4.9c-1-1-1.7-1.8-2-2.5c-0.3-0.7-0.4-1.7-0.4-3.2v-21.3
			c0-4.5,0.4-7.7,1.3-9.7c1-1.9,2.5-3.7,4.7-5.2c1.3-0.8,3.3-1.6,5.8-2.2l0.4-0.1c2.3-0.6,3.8-1.2,4.5-1.8c0.7-0.6,1.1-1.5,1.1-2.6
			c0-1.1-0.4-2-1.1-2.8c-0.7-0.7-1.4-1.1-2.4-1.1c-1.1,0-2.1,0-3,0.1c-0.7,0-1.6,0.1-2.4,0.3c-3.5,0.5-6.9,0.8-10,1.1
			c-3.3,0.3-6.5,0.4-9.8,0.4c-3,0-6.1-0.1-9.2-0.3c-3-0.2-6.1-0.5-9-1c-1.3-0.1-2.4-0.3-3.4-0.4c-1-0.1-1.8-0.1-2.7-0.1
			c-1,0-1.7,0.4-2.4,1.1c-0.7,0.7-1.1,1.6-1.1,2.5c0,1.6,1.6,3.1,4.4,4.6l0.1,0.1c1.4,0.5,2.5,1.1,3.4,1.8c0.8,0.7,1.7,1.4,2.3,2.3
			c1.1,1.4,1.8,3.2,2.4,5.4C218.2,379.8,218.5,384,218.5,390.1 M526,360.7v8.3c5.9,0.7,10.6,2.8,14.1,6.2c4.5,4.4,6.8,10.7,6.8,18.9
			c0,8.7-2.5,15.4-7.8,19.9c-3.4,2.8-7.8,4.8-13.1,5.9v9.1c3.4,0.7,6.1,2,8.1,3.8c3.3,2.9,4.9,7.6,4.9,13.8c0,8-2,14.3-5.9,19
			c-2,2.5-4.4,4.3-7.1,5.5v9.3c11.9-0.3,21.3-2.8,28-7.5c7.3-5,10.9-12,10.9-20.9c0-6.7-2-12.3-5.9-16.5c-4.1-4.2-10.2-7.2-18.4-9.1
			c11.4-0.6,19.8-3.1,25.2-7.7c5.5-4.6,8.2-11.5,8.2-20.5c0-12.7-4.5-22.2-13.6-28.3C552.5,364.4,541.1,361.4,526,360.7"/>
	</g>
	<g>
		<g id="g3964_3_" transform="matrix(1.25,0,0,-1.25,33.48455,1000.5708)">
			<path id="path3966_3_" fill-rule="evenodd" clip-rule="evenodd" fill="#00854A" d="M287,591c98.2,76.4,240.6,58.6,317.1-39.6
				c76.3-98.2,58.6-240.6-39.7-317c-2.8-2.2-5.8-4.4-8.6-6.4c90.7,77.8,105.3,214.7,31.1,310c-74.2,95.3-210.5,114.9-308.2,46
				C281.3,586.4,284.1,588.8,287,591"/>
		</g>
		<g id="g3968_3_" transform="matrix(1.25,0,0,-1.25,27.77193,998.1631)">
			<path id="path3970_3_" fill-rule="evenodd" clip-rule="evenodd" fill="#00854A" d="M226.9,616.3c106.1,82.6,253.6,76.1,350.7-8.2
				c-88.9,68.7-217.3,71.3-310.6-1.4C156.6,520.8,135.9,361.6,221,252.3s244.5-128.5,354.8-42.6c43.1,33.5,72.5,78.2,87.3,126.7
				c-14.4-58.7-47.9-113.2-99.2-153.2c-120.5-93.7-294.3-72.8-387.2,46.5C83.9,349,106.6,522.6,226.9,616.3"/>
		</g>
	</g>
</g>
</svg>
